<?xml version="1.0" encoding="utf-8"?>
<!-- Generator: Adobe Illustrator 24.2.3, SVG Export Plug-In . SVG Version: 6.00 Build 0)  -->
<svg version="1.1" id="Layer_1" xmlns="http://www.w3.org/2000/svg" xmlns:xlink="http://www.w3.org/1999/xlink" x="0px" y="0px"
	 viewBox="0 0 200 200" style="enable-background:new 0 0 200 200;" xml:space="preserve">
<style type="text/css">
	.st0{fill:#FF9933;}
</style>
<g>
	<path class="st0" d="M111.2,161.3c18.3,1.5,23.1,12,32.5,8.4c9-3.5,14.9-17,12.3-26.8c-2.2-8.4-8.9-8-23.3-22.6
		c-11.8-11.9-10.7-15.5-18.2-19.3c-9.9-4.9-23.5-4.8-33,1.5c-6.8,4.6-5.1,8.2-14.5,19.1c-11.4,13.3-17.1,11.8-21.1,20
		c-7.1,14.7,2.2,38,12.1,39.6c5.3,0.8,6.8-5.3,18.5-11.9C78.4,168.1,93.5,159.8,111.2,161.3z"/>
	<ellipse class="st0" cx="40.8" cy="98.3" rx="12.3" ry="22.1"/>
	<ellipse class="st0" cx="74.6" cy="57.8" rx="17.1" ry="30.7"/>
	<ellipse class="st0" cx="122.1" cy="50.6" rx="17.1" ry="30.7"/>
	<ellipse class="st0" cx="155.5" cy="92.4" rx="14.9" ry="26.8"/>
</g>
</svg>
