<?xml version="1.0" encoding="utf-8"?>
<!-- Generator: Adobe Illustrator 24.2.3, SVG Export Plug-In . SVG Version: 6.00 Build 0)  -->
<svg version="1.1" id="svg2" xmlns:svg="http://www.w3.org/2000/svg"
	 xmlns="http://www.w3.org/2000/svg" xmlns:xlink="http://www.w3.org/1999/xlink" x="0px" y="0px" viewBox="0 0 959 593"
	 style="enable-background:new 0 0 959 593;" xml:space="preserve">
<style type="text/css">
	.st0{fill:#FF9933;}
</style>
<path id="US-Mainland" class="st0" d="M805.2,266.1l0.2-0.7l4.3-0.1l3.1,1l2.1,0.3l1-2.1l-1.5-2.1v-1.8l-2.4-2.1l-2.1-5.5l1.3-5.3
	l-0.2-2.1l-1.3-1.3c0,0,1.5-1.6,1.5-2.3c0-0.6,0.5-2.1,0.5-2.1l1.9-1.3l1.9-1.6l0.5,1l-1.5,1.6l-1.3,3.7l0.3,1.1l1.8,0.3l0.5,5.5
	l-2.1,1l0.3,3.6l0.5-0.2l1.1-1.9l1.6,1.8l-1.6,1.3l-0.3,3.4l2.6,3.4l3.9,0.5l1.6-0.8l3.2,4.2l1.4,0.5l0.7,0.3l0.1,1.9l-0.8,3.1
	l-1.6,4.2l-0.4,5.4l1.5,4.6l2.2-1.9l1.8-5l-0.5-3.4l0.4-4.6l2.9-3.8l0.8-3.2l-0.5-0.6l2-4l0.2-4.9l-0.2-0.7l-2.3-7.4l-1,0.5
	l-3.6-2.4l-1.8-4.7l-1.9-3.6l-2.3-1l-2.1-3.6l0.5-2.1l0.5,0.5l1.1,2.2l3.2,2.9l4.8,2.3l4,0.6l0.2,1.5l-0.8,1l0.3,2.7h0.8l2.1-2.4
	l0.8-4.8l2.7-4l3.1-6.5l1.1-5.5l-0.6-1.1l-0.2-9.4L844,207l-1.1,0.8l-2.7,0.3l-0.5-0.5l1.1-1l2.1-1.9l0.1-1.1l0.5-0.1l1.2,0.5l4-1.1
	l5.8-1.9l2.6-1l7.1-5.3l3.9-2.9l3.4-3.6l-4.2-1.6l-1.3,1.5l-2.9,2.7l-7.9,3.9l-2.3-0.2l-1.6-0.6l-1.1,0.6l-2.3,2.6l-1.5,1.3
	l-1.3,0.3l-0.3-1.3l1.9-1.8L846,194l1,0.2l5-3.4l3.6-3.2l1.9-2.1l0.8,0.6l2.7-1.5l5.2-1.1l7-3.5l0.9-0.2l2.9-1l2.4-1.9l1.1-1.8
	l1.3,0.2l2.9-1.5l0.5-0.4l2.1-1l-0.5-2.3l0.8-1.5l2.9-1.5l0.8,3.1l-0.5,1.8l-2.4,1.5v1l1.9-1.5l3.9-4.5l3.9-1.9l4.2-1.5l-0.3-2.4
	l-1-2.9l-1.9-2.4l-1.8-0.8l-2.1,0.2l-0.5,0.5l1,1.3l1.5-0.8l2.1,1.6l0.8,2.7l-1.8,1.8l-2.3,1l-3.6-0.5l-3.9-6l-2.3-2.6h-1.8
	l-1.1,0.8l-1.9-2.6l0.3-1.5l2.4-5.2l-2.9-4.4l-0.6-0.5l0.9-1.1l1.1-3.3l0.4-1.1l1.1-6.3l0.2-4.4l1.5-1.3l-1-3.2l3.1-3.6l1.6,1.5
	l1.3-0.5l5.3-3.1l0.3-2.9l2.9-0.5l1.6-2.6l-0.2-1.6l-0.3-3.1l0.8-1.3l-0.3-1.1l-1.3-1.5l2.1-1.3l1.8,3.2l1.5-0.3l0.3,1.3v1.6
	l1.9,0.2l0.5-2.7l0.5-0.6l-1.6-1.5l1-1.5l2.4-1.5l1-1.5l1.8-0.2c0,0,0.3,2.1,1,2.1c0.6,0,1.3,0,1.3,0l4.8-5.5l3.4-3.1l1.9-0.6
	l2.1-4.7v-1.9l-2.3-3.7l-1.9-2.1l-2.7,0.2l0.5,1.1l-0.2,0.5H920l-2.9-2.3l-0.2-4.8l-0.8-1.9h-6l-9.1-29.9l-1.9-1l-6-2.4l-1.5-0.2
	l-1.8,1.8l-4,2.9v1l-0.8,0.8l-2.7-0.6l-1.3-2.3V39l-1.3-0.2h-1.3l-2.1,4.2l-2.9,8.9l-1.8,4.8l0.2,4.8l0.2,1.5l-0.8,2.7l-0.8,1v6
	l1.9,2.4l-1.5,4l-2.6,4.7l-0.8,5.5V92l-1.5-0.4l-1.4,0.1l-0.9,0.5l-0.9,0l-0.6,1.6l-0.6-0.5l-1-1l-1.5,1.9l0,5l-0.9,0.3l-26.2,6.7
	l-0.6,0.4l-7.6,2.1l-4.5,1.5l-3.2-0.2l-5.5,1.3l-3.1,1.2l-2.4,1.8l-2.1,2.4l-2.7,3.7l-2.9,4.5l-1.5,2.9l-0.6,0.8l-5.8,5.5l0.2,2.6
	l0.8,1.1l1.8,0.8h1.8v1.5l-1.1,2.1l0.3,1.5l1.5,2.1l-0.2,2.3l-1.9,1.1h-2.1l-1.6,1.9l-1.8,3.2l-2.1,1.8l-5.2,0.5l-2.6,1.1l-2.1,1.3
	l-1.6-0.2l-1.9-1.3l-6.3,0.2l-3.2,0.5l-4,1.3l-4.4,1.5l-2.9,1.8l1.9,6.1l1.8,0.2l1.3,3.1l0.2,1l-1.1,1l-2.1,2.7l-0.5,1.6l-1.9,1.8
	l-1.8,1.1l-1,1.6l-1.3,1.1l-1.4,1.1l-1,0.5l-5.5,5.6l-1.3,0.5l-4.2,3l-1-0.1l-6.1,4.1l-3.9,2.3l-3.4,3.7l-4,3.9l-3.2,0.8l-2.9,0.5
	l-5.5,2.6l-2.1,0.2l-3.4-3.1l-5.2,0.6l-2.6-1.5l-2.4-1.4l-1.2-0.3l0.1-0.6l0.2-1.5l2.1-3.7l2-1.7l-0.2-5.1l1.6-1.6l1.1-0.3l0.2-3.6
	l1.5-3l1.1,0.6l0.2,0.6l0.8,0.2l1.9-1l-0.3-9.5l-3.2-8.2l-2.3-9.1l-2.4-3.2l-2.6-1.8l-1.6,1.1l-3.9,1.8l-1.9,5l-2.7,3.7l-1.1,0.6
	l-1.5-0.6c0,0-2.6-1.5-2.4-2.1s0.5-5,0.5-5l3.4-1.3l0.8-3.4l0.6-2.6l2.4-1.6l-0.3-10l-1.6-2.3l-1.3-0.8l-0.8-2.1l0.8-0.8l1.6,0.3
	l0.2-1.6L676,131l-1.3-2.6h-2.6l-4.5-1.5l-5.5-3.4h-2.7l-0.6,0.6l-1-0.5l-3.1-2.3l-2.9,1.8l-2.9,2.3l0.3,3.6l1,0.3l2.1,0.5l0.5,0.8
	l-2.6,0.8l-2.6,0.3l-1.5,1.8l-0.3,2.1l0.3,1.6l0.3,5.5l-3.6,2.1l-0.6-0.2v-4.2l1.3-2.4l0.6-2.4l-0.8-0.8l-1.9,0.8l-1,4.2l-2.7,1.1
	l-1.8,1.9l-0.2,1l0.6,0.8l-0.6,2.6l-2.3,0.5v1.1l0.8,2.4l-1.1,6.1l-1.6,4l0.6,4.7l0.5,1.1l-0.8,2.4l-0.3,0.8l-0.3,2.7l3.6,6l2.9,6.5
	l1.5,4.8l-0.8,4.7l-1,6l-2.4,5.2l-0.3,2.7l-3.3,3.1l-1,0.8l-2.8,1.6l-2.1,1.9l-1.1,0.3l-1.5-1l-3.1-0.9l-0.9,0.2l-0.3-0.9l-0.8-2.6
	l-1.3-3.7l-1.6-1.8l-1.5-2.6l-0.2-5.5l-0.3-1.1l0.4-3l-1.6-4.5l-0.6-6.1l-1.1-2.4l1-3.1l0.8-2.9l1.5-2.6l-0.6-3.4l-0.6-3.6l0.5-1.8
	l1.9-2.4l0.2-2.7l-0.8-1.3l0.6-2.6l0.5-3.2l2.7-5.7l2.9-6.8l0.2-2.3l-0.3-1l-0.8,0.5l-4.2,6.3l-2.7,4l-1.9,1.8l-0.8,2.3l-1.5,0.8
	l-1.1,1.9l-1.5-0.3l-0.2-1.8l1.3-2.4l2.1-4.7l1.8-1.6l1.1-2.3l0.6-0.9l3.2-7l1-4l1.9-4.4l0.8-0.2l1.1,1.6h0.6l4.5-2.4l1.5,1.6
	l0.5,0.2l1.3-1.1l1.1-3.1l2.4-0.8l7-0.6l1.9-2.6l5.2-0.2l5.8,1.3h1.8l3.2-1.5l2.3,0.2l2.1-0.6l3.7,0.5l0.8,0.3l1.3-0.3l-1.3-1
	l-1.3-0.6l-3.2-3.1v-7l-1.5-0.5l-1.1,1.1l-6.1,1.6l-1.9,0.5l-2.9-0.8l-0.5-0.3v-5.7l-1.5-0.2l-2.6,1.3l-4.5,1.9l-6.6,0.3l-3.4,1.1
	l-4,3.6l-1.6,1h-1.1l-1.3,0.8l-1.6-0.5l-1.6-1.3l-1.5,1l-3.9,0.2l-2.7-2.7l-1.5-3.1l-1.5-1.1l-3.2-1h-2.3l-1.3-1.3l-3.6,2.9l-1,1.1
	l-0.8-0.5l0.3-2.6l2.4-3.2l0.5-2.4l2.3-0.8l1.5-3.1l3.7-1l0.3-1l-1.1-1.1l-4.7,0.5l-4.4,2.4l-2.3,2.3l-1.3,1.8l-1.8,0.8l-1.9,2.9
	l-0.2,1.3l-4.4,2.1l-2.4,1.9l-6,1l-0.6,0.6v1l-3.6,2.3l-2.7,0.8l-0.7,0.6l-1,0.4l-0.5,1.3l-1.1-0.2l-0.6-1.1l-2.7-0.8l-1.1,0.2
	l-1.8,1l-1-0.6l0.6-1.9l1.9-3.1l1.1-1.1l-1.9-1.5l-2.1,0.8l-2.9,1.9l-7.4,3.2l-2.9,0.6l-2.9-0.5l-1-0.9l-0.4-0.6l3.8-2.9l1.3-0.2
	l4.5-5l1.8-0.8l2.3-3.9l2.4-3.6l3.1-2.6l4.8-2l9.2-4.1l3.9-1.8l0.6-2.3l-4.4,0.4l-0.7,1.1h-0.6l-1.8-3.1l-8.9,0.3l-1,0.8h-1
	l-0.5-1.3l-0.8-1.8l-2.6,0.5l-3.2,3.2l-1.6,0.8h-3.1l-2.6-1v-2.1l-1.3-0.2l-0.5,0.5l-2.6-1.3l-0.5-2.9l-1.5,0.5l-0.5,1l-2.4-0.5
	l-5.3-2.4l-3.9-2.6h-2.9l-1.3-1l-2.3,0.6l-1.1,1.1l-0.3,1.3h-4.8v-2.1l-6.3-0.3l-0.3-1.5h-4.8l-1.6-1.6l-1.5-6.1l-0.8-5.5l-1.9-0.8
	l-2.3-0.5l-0.6,0.2l-0.3,8.2l-30.1,0l-1.1,0l-28.4-0.6L414.6,60l-26.5-1.3l-24.9-1.9l-1.3-0.5l-30.7-2.8L302,50l-29.3-4l-32.3-5.3
	l-18.4-3.4l-32.7-6.9l-1.1-0.2l-13-2.5l-0.7-0.4l-15.2-3.4l-23-5.7l-20-5.7l-8.6-1.9l-9.7-2.7l-4.4-1.5l-1.1,0.8L92.1,8l2.4,4.8
	l1.1,2.6L93.9,19v2.3l0.6,1.5l-0.8,1.8l0.5,3.2l1,1.3L95,30.3l-1.5,0.2l-0.6-1.9l-1.1-2.4L90,24.6l0.3-2.1l2.3-0.5l-0.3-1.8L92,19.1
	l-2.1,1.3l-1.3,1.1V24l-2.3,0.2l-3.4-1L80,21.7l-3.1-0.6L72.4,19L69.2,17l-2.7-2.6L64,11.5L61.9,11l-2.3,9.4l1.8,3.2v7.9l-0.6,2.9
	l1.5,7.1l2.7,2.7L60.6,45l-0.2,3.7l2.6,1.1l-1.6,4l-2.7,0.3l-0.3,2.9l2.3,2.9l-2.1,2.6l-2.3,6.5l-3.2,10l-3.2,6.5l-5,14.1l-6.5,13.6
	l-8.1,12.6l-1.9,2.9l-0.8,8.6l-1.3,6l2.7,3.5l-0.5,1l-1.6,4.7l-0.2,7.4l-5.2,11.8l-3.1,2.6l-0.3,1.1l-1.8,0.8l-1.5,4.2l-0.8,3.2
	l2.7,4.2l1.6,4.2l1.1,3.6l-0.3,6.5l-1.8,3.1l-0.6,5.8l-1,3.7l1.8,3.9l2.7,4.5l2.3,4.8l1.3,4l-0.3,3.2l-0.3,0.5v2.1l5.7,6.3l-0.5,2.4
	l-0.6,2.3l-0.6,1.9l0.2,8.2l2.1,3.7l1.9,2.6l2.7,0.5l1,2.7l-1.1,3.6l-2.1,1.6h-1.1l-0.8,3.9l0.5,2.9l3.2,4.4l1.6,5.3l1.5,4.7L38,298
	l3.4,5.8l1.5,2.6l0.5,2.9l1.6,1v2.4l-0.8,1.9l-1.8,7.1l-0.5,1.9l2.4,2.7l4.2,0.5l4.5,1.8l3.9,2.1h2.9l2.9,3.1l2.6,4.8l1.1,2.3
	l3.9,2.1l4.8,0.8l1.5,2.1l0.6,3.2l-1.5,0.6l0.3,1l3.2,0.8l2.7,0.2l2.9,4.7l3.9,4.2l0.8,2.3l2.6,4.2l0.3,3.2v9.4l0.5,1.8l10,1.5
	l19.7,2.7l13.9,1l1,0.7l-2.6,2.2l-0.3,1.5l0.5,1l18.9,10.7l12.1,7.6l14.7,8.6l16.8,10l12.3,2.4l25.1,2.7l1.6,0.8l15.5,2l1.3-10
	l16.7,2.6l12.5,1.6l1,0l1.9,0.5l2.6,2.9l1.5,4.4l4.7,2.3l1.3,3.2l7.1,7.9l1.3,1.6l5,2.1l1.1,2.1l1.6,1l0.5,2.7l3.2,6.5v8.1l2.3,4.7
	l7.4,7.8l5.2,2.1l1.8,1.9v0.6l3.9,2.3l1.9,0.6l1.8,1.1l2.6,1l2.4-2.4l4.4-6.1l1-3.7l2.3-3.2l3.6-1.5l4.5-1.8l3.1,2.3l7.4,0.6
	l6.8,1.1l2.6,2.1v1.1l2.6,3.1l6,5.3l0.2,1.5l1.8,1.9l0.8,4.2l5.3,12.3l-0.2,1.9l4.2,2.6l3.6,6.6l3.4,4.4l3.2,1.3l1.6,2.3l-1.3,4.4
	l0.6,1l1.3,0.6l-0.3,3.4l-0.6,0.6l0.6,2.3l3.2,1.9l1.3,6.5l2.1,3.9l7.6,3.4l5.2,1.1l4.2,3.1l3.2,0.6l1.3-0.5l5.5,1.1l5.7,3.9
	l3.1-1.9l1-1.5l-1.8-2.7l-1-6.1l-1.8-7l-0.8-2.4l0.8-4.5l1.1-3.9l1.3-4.5l1.5-5.5l-2.3-1.9l1-1.9l4-0.3l3.9-5.5l3.4-0.6l5.8-3.6
	l1.8-1.5l6.3-3.4l5.7-2.4l5.3-3.2l2.7-2.1l5.7-5.3l1.3-0.8l2.1-1.5l2.6-1.9l1-1.9l9.9-4.5l5.7-1.6l0.6-0.1l4.7-1.5l8.1-0.3l10.3,3.6
	l6.5,1.1l3.7-1.5l3.2,1.1l3.2,1l0.8-2.1l-3.2-1.1l-2.6,0.5l-2.7-1.6c0,0,0.2-1.3,0.8-1.5c0.6-0.2,3.1-1,3.1-1l1.8,1.5l1.8-1l3.2,0.6
	l1.5,2.4l0.3,2.3l4.5,0.3l1.8,1.8l-0.8,1.6l-1.3,0.8l1.6,1.6l8.4,3.6l3.6-1.3l1-2.4l2.6-0.6l1.8-1.5l1.3,1l0.8,2.9l-2.3,0.8l0.6,0.6
	l3.4-1.3l2.3-3.4l0.8-0.5l-2.1-0.3l0.8-1.6l-0.2-1.5l2.1-0.5l1.1-1.3l0.6,0.8c0,0-0.2,3.1,0.6,3.1c0.8,0,4.2,0.6,4.2,0.6l4,1.9
	l1,1.5h2.9l1.1,1l2.3-3.1v-1.5h-1.3l-3.4-2.7l-5.8-0.8l-3.2-2.3l1.1-2.7l2.3,0.3l0.2-0.6l-1.8-1v-0.5h3.2l1.8-3.1l-1.3-1.9l-0.3-2.7
	l-1.5,0.2l-1.9,2.1l-0.6,2.6l-3.1-0.6l-1-1.8l1.8-1.9l2-1.8l0.8-0.5l1.1-0.8l2.6-4.2l1.8,0.8l6.8-1.9l2.1,0.3l1.5,0.8h5.2l0.3-1.3
	l1-0.2h2.7l0.6,0.2l1.3-2.7l1.5-4.4l2.3,0.6l3.1,6v1l-2.7,1.9l2.7,0.3l5.5-2.6l0.7,0.1l3.5-0.6l6-2.1l6-0.5l4.4-0.6l7.6,1.8l8.1,3.9
	l1.6,1.5l2.9,1.1l1.6,1.9l0.3,2.7l3.2-1.3h3.9l3.6-1.9l3.7-3.6l3.1,0.2l0.5-1.1l-0.8-1l0.2-1.9l4-0.8h2.6l2.9,1.5l4.2,1.5l2.4,3.7
	l2.7,1l1.1,3.4l3.4,1.6l1.6,2.6l1.9,0.6l5.2,1.3l1.3,3.1l3.1,3.7v9.5l-1.5,4.7l0.3,2.7l1.3,4.8l1.8,4l0.8-0.5l1.5-4.5l-2.6-1
	l-0.3-0.6l1.6-0.6l4.5,1l0.2,1.6l-3.2,5.5l-2.1,2.4l3.6,3.7l2.6,3.1l2.9,5.3l2.9,3.9l2.1,5l1.8,0.3l1.6-2.1l1.8,1.1l2.6,4l0.6,3.6
	l3.1,4.4l0.8-1.3l3.9,0.3l3.6,2.3l3.4,5.2l0.8,3.4l0.3,2.9l1.1,1l1.3,0.5l2.4-1l1.5-1.6l3.9-0.2l3.1-1.5l2.7-3.2l-0.5-1.9l-0.3-2.4
	l0.6-1.9l-0.3-1.9l2.4-1.3l0.3-3.4l-0.6-1.8l-0.5-12l-1.3-7.6l-4.5-8.2l-3.6-5.8l-2.6-5.3l-2.9-2.9L779,493l0.8-1.3l1.1-1.3
	l-1.6-2.9l-4-3.7l-4.8-5.5l-3.7-6.3l-5.3-9.4l-3.7-9.7l-2.3-7.3l0-0.9l-0.8-6.3l2.3-10l1.5-4.2l-0.5-2.6l3.3-6.2l-0.5-1.4l0.6-1
	l2.1-1.3l5-5.5l-1-3.2l2.9-0.2l3.6-3.4l1.6-0.8l2.3-3.4l2.7-2.7l2.1-3.6l2.4-0.6l1.1-2.7l1.6-0.8l0.5-6.3l2.6-6.1l5.4-5.5l0.3-0.8
	l5.5-1.3l4.7-0.5l0.5-2.4l1.9-6.5l3.4-4.7l6.5-5.3l5.2-2.4l2.7-0.6l1.1,0.5h1.3l3.1-4.8l1.9-3.6l-1.3,0.5l-2.3,2.3l-0.6-1.6h-4.2
	l1.9-6.3l-0.8-1.3h-1.9v-1l-0.3-1.3l1.6,1.3l1.5,0.2l2.4,0.3l3.7-1.6l1.3-2.9l0.6-2.1l2.6-1.3l0.3-4.2l-0.8-0.6l2.4-0.2l-0.6-2.3
	l-2.4-2.4l-3.6-6.5l-1.7-4.7l-0.9-0.9l-3.6-6l-5.8,1.7l-1.6-1.5l2.6-1.4l-0.5-2.5l-1.8-1.8l-0.1-1.4l-2.3-1.5l-0.1-1.6l2.7,0.1
	l0.2-1.4l-1.2-0.8l0.5-1.9l-1.4-1.1l0.4-4.7l-0.9-1.2l-3.2-0.4L813,268l-4.9-0.9L805.2,266.1z M767.9,577.9l2.4-0.6l1.3-0.2l1.5-2.3
	l2.3-1.6l1.3,0.5l1.7,0.3l0.4,1.1l-3.5,1.2l-4.2,1.5l-2.3,1.2L767.9,577.9z M781.4,572.9l1.2,1.1l2.7-2.1l5.3-4.2l3.7-3.9l2.5-6.6
	l1-1.7l0.2-3.4l-0.7,0.5l-1,2.8l-1.5,4.6l-3.2,5.3l-4.4,4.2l-3.4,1.9L781.4,572.9z M836,331.5l2.6-2.5l3.2-2.6l1.5-0.6l0.2-2
	l-0.6-6.1l-1.5-2.3l-0.6-1.9l0.7-0.2l2.7,5.5l0.4,4.4l-0.2,3.4L841,328l-2.8,2.4l-1.1,1.2L836,331.5z M900,173.9l2.2-0.7l0.5-1.7
	l1,0.1l1,2.3l-1.3,0.5l-3.9,0.1L900,173.9z M890.6,174.7l2.3-2.6h1.6l1.8,1.5l-2.4,1l-2.2,1L890.6,174.7z M902.3,107.5l1.5-1.5
	l1.4,1.1l0.6,2.4l-1.7,0.9L902.3,107.5z M909,101.6l1.8,1.9c0,0,1.3,0.1,1.3-0.2s0.2-2,0.2-2l0.9-0.8l-0.8-1.8l-2,0.7L909,101.6z
	 M820.3,264.3l1.1,2.5l0.2,1.8l1.1,1.9c0,0,0.9-0.9,0.9-1.2c0-0.3-0.7-3.1-0.7-3.1l-0.7-2.3L820.3,264.3z M581.6,82.1l1.8-2.1
	l2.2-0.8l5.4-3.9l2.3-0.6l0.5,0.5l-5.1,5.1l-3.3,1.9l-2.1,0.9L581.6,82.1z M667.8,114.2l0.6,2.5l3.2,0.2l1.3-1.2
	c0,0-0.1-1.5-0.4-1.6c-0.3-0.2-1.6-1.9-1.6-1.9l-2.2,0.2l-1.6,0.2l-0.3,1.1L667.8,114.2z M84.1,12.3l2-0.2l0.5,1.4l1.5-1.6h2.3
	l0.8,1.5l-1.5,1.7l0.6,0.8l-0.7,2l-1.4,0.4c0,0-0.9,0.1-0.9-0.2s1.5-2.6,1.5-2.6L87.2,15l-0.3,1.5l-0.7,0.6l-1.5-2.3L84.1,12.3z
	 M457.2,567.3l-0.6-7.1l-2.7-7.2l-0.6-7l1.5-8.2l3.3-6.9l3.5-5.4l3.2-3.6l0.6,0.2l-4.8,6.6l-4.4,6.5l-2,6.6l-0.3,5.2l0.9,6.1
	l2.6,7.2l0.5,5.2l0.2,1.5L457.2,567.3z M48.8,337l1.3,1.5l-0.2,1.3l-3.2-0.1l-0.6-1.2l-0.6-1.5L48.8,337z M50.7,337l1.2-0.6l3.6,2.1
	l3.1,1.2l-0.9,0.6l-4.5-0.2l-1.6-1.6L50.7,337z M71.4,356.8l1.8,2.3l0.8,1l1.5,0.6l0.6-1.5l-1-1.8l-2.7-2l-1.1,0.2V356.8z M70,365.5
	l1.8,3.2l1.2,1.9l-1.5,0.2l-1.3-1.2c0,0-0.7-1.5-0.7-1.9s0-2.2,0-2.2L70,365.5z"/>
</svg>
