<svg data-v-423bf9ae="" xmlns="http://www.w3.org/2000/svg" viewBox="0 0 659 90" class="iconLeft"><!----><!----><!----><g data-v-423bf9ae="" id="4b670aac-72c9-4901-b98e-adb0e741e715" fill="#371213" transform="matrix(5.703421805055199,0,0,5.703421805055199,113.5663000048653,-0.627375561824735)"><path d="M3.46 12.08L3.46 12.08L3.46 12.08Q5.59 12.08 5.59 10.63L5.59 10.63L5.59 10.63Q5.59 10.18 5.40 9.86L5.40 9.86L5.40 9.86Q5.21 9.55 4.89 9.32L4.89 9.32L4.89 9.32Q4.56 9.09 4.15 8.92L4.15 8.92L4.15 8.92Q3.74 8.75 3.28 8.58L3.28 8.58L3.28 8.58Q2.74 8.40 2.27 8.17L2.27 8.17L2.27 8.17Q1.79 7.94 1.44 7.62L1.44 7.62L1.44 7.62Q1.09 7.31 0.89 6.87L0.89 6.87L0.89 6.87Q0.69 6.44 0.69 5.82L0.69 5.82L0.69 5.82Q0.69 4.55 1.55 3.84L1.55 3.84L1.55 3.84Q2.42 3.12 3.95 3.12L3.95 3.12L3.95 3.12Q4.83 3.12 5.55 3.31L5.55 3.31L5.55 3.31Q6.27 3.50 6.61 3.72L6.61 3.72L6.17 4.83L6.17 4.83Q5.88 4.65 5.30 4.47L5.30 4.47L5.30 4.47Q4.72 4.30 3.95 4.30L3.95 4.30L3.95 4.30Q3.56 4.30 3.22 4.38L3.22 4.38L3.22 4.38Q2.88 4.47 2.63 4.63L2.63 4.63L2.63 4.63Q2.38 4.80 2.23 5.06L2.23 5.06L2.23 5.06Q2.09 5.32 2.09 5.67L2.09 5.67L2.09 5.67Q2.09 6.06 2.24 6.33L2.24 6.33L2.24 6.33Q2.39 6.59 2.67 6.80L2.67 6.80L2.67 6.80Q2.95 7 3.33 7.17L3.33 7.17L3.33 7.17Q3.70 7.34 4.14 7.50L4.14 7.50L4.14 7.50Q4.77 7.76 5.30 8.01L5.30 8.01L5.30 8.01Q5.82 8.26 6.21 8.61L6.21 8.61L6.21 8.61Q6.59 8.96 6.80 9.44L6.80 9.44L6.80 9.44Q7.01 9.93 7.01 10.61L7.01 10.61L7.01 10.61Q7.01 11.89 6.08 12.57L6.08 12.57L6.08 12.57Q5.15 13.26 3.46 13.26L3.46 13.26L3.46 13.26Q2.88 13.26 2.40 13.18L2.40 13.18L2.40 13.18Q1.92 13.10 1.54 13.00L1.54 13.00L1.54 13.00Q1.16 12.89 0.89 12.78L0.89 12.78L0.89 12.78Q0.62 12.66 0.46 12.57L0.46 12.57L0.87 11.45L0.87 11.45Q1.19 11.63 1.85 11.86L1.85 11.86L1.85 11.86Q2.51 12.08 3.46 12.08ZM14.36 5.77L14.36 12.84L14.36 12.84Q13.92 12.95 13.18 13.08L13.18 13.08L13.18 13.08Q12.45 13.20 11.48 13.20L11.48 13.20L11.48 13.20Q10.64 13.20 10.07 12.96L10.07 12.96L10.07 12.96Q9.49 12.71 9.14 12.26L9.14 12.26L9.14 12.26Q8.79 11.82 8.64 11.21L8.64 11.21L8.64 11.21Q8.48 10.60 8.48 9.86L8.48 9.86L8.48 5.77L9.79 5.77L9.79 9.58L9.79 9.58Q9.79 10.91 10.21 11.48L10.21 11.48L10.21 11.48Q10.63 12.05 11.62 12.05L11.62 12.05L11.62 12.05Q11.83 12.05 12.05 12.04L12.05 12.04L12.05 12.04Q12.28 12.03 12.47 12.01L12.47 12.01L12.47 12.01Q12.67 11.98 12.83 11.96L12.83 11.96L12.83 11.96Q12.99 11.94 13.06 11.91L13.06 11.91L13.06 5.77L14.36 5.77ZM16.60 13.05L16.60 5.98L16.60 5.98Q17.05 5.87 17.79 5.74L17.79 5.74L17.79 5.74Q18.54 5.61 19.50 5.61L19.50 5.61L19.50 5.61Q20.37 5.61 20.94 5.86L20.94 5.86L20.94 5.86Q21.52 6.10 21.86 6.54L21.86 6.54L21.86 6.54Q22.20 6.99 22.34 7.60L22.34 7.60L22.34 7.60Q22.48 8.22 22.48 8.96L22.48 8.96L22.48 13.05L21.18 13.05L21.18 9.24L21.18 9.24Q21.18 8.57 21.09 8.09L21.09 8.09L21.09 8.09Q21 7.62 20.79 7.32L20.79 7.32L20.79 7.32Q20.58 7.03 20.23 6.89L20.23 6.89L20.23 6.89Q19.88 6.76 19.36 6.76L19.36 6.76L19.36 6.76Q19.15 6.76 18.93 6.78L18.93 6.78L18.93 6.78Q18.70 6.79 18.50 6.81L18.50 6.81L18.50 6.81Q18.30 6.83 18.14 6.86L18.14 6.86L18.14 6.86Q17.98 6.89 17.91 6.90L17.91 6.90L17.91 13.05L16.60 13.05ZM26.33 12.11L26.33 12.11L26.33 12.11Q27.13 12.11 27.52 11.90L27.52 11.90L27.52 11.90Q27.90 11.69 27.90 11.23L27.90 11.23L27.90 11.23Q27.90 10.75 27.52 10.47L27.52 10.47L27.52 10.47Q27.15 10.19 26.28 9.84L26.28 9.84L26.28 9.84Q25.86 9.67 25.47 9.50L25.47 9.50L25.47 9.50Q25.09 9.32 24.81 9.09L24.81 9.09L24.81 9.09Q24.53 8.85 24.36 8.51L24.36 8.51L24.36 8.51Q24.19 8.18 24.19 7.69L24.19 7.69L24.19 7.69Q24.19 6.72 24.91 6.15L24.91 6.15L24.91 6.15Q25.62 5.59 26.85 5.59L26.85 5.59L26.85 5.59Q27.16 5.59 27.47 5.62L27.47 5.62L27.47 5.62Q27.78 5.66 28.04 5.71L28.04 5.71L28.04 5.71Q28.31 5.75 28.51 5.81L28.51 5.81L28.51 5.81Q28.71 5.87 28.83 5.91L28.83 5.91L28.59 7.03L28.59 7.03Q28.38 6.92 27.93 6.80L27.93 6.80L27.93 6.80Q27.48 6.68 26.85 6.68L26.85 6.68L26.85 6.68Q26.31 6.68 25.90 6.89L25.90 6.89L25.90 6.89Q25.49 7.11 25.49 7.57L25.49 7.57L25.49 7.57Q25.49 7.81 25.59 7.99L25.59 7.99L25.59 7.99Q25.68 8.18 25.86 8.32L25.86 8.32L25.86 8.32Q26.05 8.47 26.33 8.60L26.33 8.60L26.33 8.60Q26.61 8.72 27.01 8.86L27.01 8.86L27.01 8.86Q27.52 9.06 27.93 9.25L27.93 9.25L27.93 9.25Q28.34 9.44 28.62 9.69L28.62 9.69L28.62 9.69Q28.91 9.94 29.06 10.30L29.06 10.30L29.06 10.30Q29.22 10.65 29.22 11.17L29.22 11.17L29.22 11.17Q29.22 12.18 28.47 12.70L28.47 12.70L28.47 12.70Q27.72 13.22 26.33 13.22L26.33 13.22L26.33 13.22Q25.37 13.22 24.82 13.05L24.82 13.05L24.82 13.05Q24.28 12.89 24.08 12.81L24.08 12.81L24.32 11.69L24.32 11.69Q24.54 11.77 25.03 11.94L25.03 11.94L25.03 11.94Q25.52 12.11 26.33 12.11ZM30.48 9.42L30.48 9.42L30.48 9.42Q30.48 8.46 30.76 7.74L30.76 7.74L30.76 7.74Q31.04 7.01 31.50 6.54L31.50 6.54L31.50 6.54Q31.96 6.06 32.56 5.82L32.56 5.82L32.56 5.82Q33.17 5.59 33.80 5.59L33.80 5.59L33.80 5.59Q35.27 5.59 36.05 6.50L36.05 6.50L36.05 6.50Q36.83 7.42 36.83 9.30L36.83 9.30L36.83 9.30Q36.83 9.38 36.83 9.51L36.83 9.51L36.83 9.51Q36.83 9.65 36.82 9.76L36.82 9.76L31.84 9.76L31.84 9.76Q31.92 10.89 32.49 11.48L32.49 11.48L32.49 11.48Q33.07 12.07 34.29 12.07L34.29 12.07L34.29 12.07Q34.97 12.07 35.44 11.95L35.44 11.95L35.44 11.95Q35.91 11.83 36.15 11.72L36.15 11.72L36.33 12.81L36.33 12.81Q36.09 12.94 35.50 13.08L35.50 13.08L35.50 13.08Q34.90 13.22 34.15 13.22L34.15 13.22L34.15 13.22Q33.19 13.22 32.50 12.93L32.50 12.93L32.50 12.93Q31.81 12.64 31.36 12.14L31.36 12.14L31.36 12.14Q30.91 11.63 30.70 10.94L30.70 10.94L30.70 10.94Q30.48 10.25 30.48 9.42ZM31.86 8.71L35.48 8.71L35.48 8.71Q35.49 7.83 35.03 7.26L35.03 7.26L35.03 7.26Q34.58 6.69 33.78 6.69L33.78 6.69L33.78 6.69Q33.33 6.69 32.99 6.87L32.99 6.87L32.99 6.87Q32.65 7.04 32.41 7.32L32.41 7.32L32.41 7.32Q32.17 7.60 32.04 7.97L32.04 7.97L32.04 7.97Q31.91 8.33 31.86 8.71L31.86 8.71ZM39.93 3.51L39.93 5.77L42.69 5.77L42.69 6.86L39.93 6.86L39.93 10.22L39.93 10.22Q39.93 10.77 40.01 11.12L40.01 11.12L40.01 11.12Q40.10 11.48 40.26 11.68L40.26 11.68L40.26 11.68Q40.43 11.89 40.68 11.97L40.68 11.97L40.68 11.97Q40.94 12.05 41.27 12.05L41.27 12.05L41.27 12.05Q41.86 12.05 42.22 11.92L42.22 11.92L42.22 11.92Q42.57 11.79 42.71 11.73L42.71 11.73L42.97 12.81L42.97 12.81Q42.77 12.91 42.28 13.05L42.28 13.05L42.28 13.05Q41.79 13.20 41.16 13.20L41.16 13.20L41.16 13.20Q40.42 13.20 39.94 13.01L39.94 13.01L39.94 13.01Q39.45 12.82 39.16 12.45L39.16 12.45L39.16 12.45Q38.86 12.07 38.75 11.52L38.75 11.52L38.75 11.52Q38.63 10.96 38.63 10.23L38.63 10.23L38.63 3.74L39.93 3.51ZM51.83 13.26L51.83 13.26L51.83 13.26Q50.81 13.26 49.97 12.92L49.97 12.92L49.97 12.92Q49.13 12.59 48.52 11.94L48.52 11.94L48.52 11.94Q47.92 11.30 47.59 10.35L47.59 10.35L47.59 10.35Q47.26 9.41 47.26 8.19L47.26 8.19L47.26 8.19Q47.26 6.97 47.64 6.03L47.64 6.03L47.64 6.03Q48.01 5.08 48.64 4.44L48.64 4.44L48.64 4.44Q49.27 3.79 50.11 3.46L50.11 3.46L50.11 3.46Q50.95 3.12 51.90 3.12L51.90 3.12L51.90 3.12Q52.50 3.12 52.98 3.21L52.98 3.21L52.98 3.21Q53.47 3.29 53.82 3.40L53.82 3.40L53.82 3.40Q54.18 3.51 54.40 3.63L54.40 3.63L54.40 3.63Q54.63 3.74 54.71 3.79L54.71 3.79L54.32 4.91L54.32 4.91Q54.19 4.83 53.96 4.73L53.96 4.73L53.96 4.73Q53.72 4.63 53.42 4.54L53.42 4.54L53.42 4.54Q53.12 4.44 52.76 4.38L52.76 4.38L52.76 4.38Q52.40 4.31 52.04 4.31L52.04 4.31L52.04 4.31Q51.27 4.31 50.65 4.58L50.65 4.58L50.65 4.58Q50.04 4.84 49.60 5.35L49.60 5.35L49.60 5.35Q49.17 5.85 48.94 6.57L48.94 6.57L48.94 6.57Q48.71 7.29 48.71 8.19L48.71 8.19L48.71 8.19Q48.71 9.06 48.91 9.77L48.91 9.77L48.91 9.77Q49.11 10.49 49.52 11.00L49.52 11.00L49.52 11.00Q49.92 11.51 50.53 11.79L50.53 11.79L50.53 11.79Q51.14 12.07 51.95 12.07L51.95 12.07L51.95 12.07Q52.89 12.07 53.51 11.87L53.51 11.87L53.51 11.87Q54.12 11.68 54.43 11.52L54.43 11.52L54.78 12.64L54.78 12.64Q54.68 12.71 54.43 12.82L54.43 12.82L54.43 12.82Q54.18 12.92 53.80 13.02L53.80 13.02L53.80 13.02Q53.42 13.12 52.92 13.19L52.92 13.19L52.92 13.19Q52.42 13.26 51.83 13.26ZM58.72 12.11L58.72 12.11L58.72 12.11Q59.18 12.11 59.54 12.09L59.54 12.09L59.54 12.09Q59.89 12.07 60.13 12.01L60.13 12.01L60.13 9.84L60.13 9.84Q59.99 9.77 59.68 9.72L59.68 9.72L59.68 9.72Q59.36 9.67 58.91 9.67L58.91 9.67L58.91 9.67Q58.62 9.67 58.29 9.72L58.29 9.72L58.29 9.72Q57.96 9.76 57.69 9.89L57.69 9.89L57.69 9.89Q57.41 10.02 57.23 10.25L57.23 10.25L57.23 10.25Q57.05 10.49 57.05 10.86L57.05 10.86L57.05 10.86Q57.05 11.56 57.50 11.84L57.50 11.84L57.50 11.84Q57.95 12.11 58.72 12.11ZM58.60 5.59L58.60 5.59L58.60 5.59Q59.39 5.59 59.93 5.79L59.93 5.79L59.93 5.79Q60.47 5.99 60.80 6.36L60.80 6.36L60.80 6.36Q61.12 6.73 61.26 7.25L61.26 7.25L61.26 7.25Q61.40 7.76 61.40 8.37L61.40 8.37L61.40 12.92L61.40 12.92Q61.24 12.95 60.94 13.00L60.94 13.00L60.94 13.00Q60.63 13.05 60.26 13.09L60.26 13.09L60.26 13.09Q59.88 13.13 59.44 13.17L59.44 13.17L59.44 13.17Q59.00 13.20 58.56 13.20L58.56 13.20L58.56 13.20Q57.95 13.20 57.43 13.08L57.43 13.08L57.43 13.08Q56.91 12.95 56.53 12.68L56.53 12.68L56.53 12.68Q56.15 12.40 55.94 11.96L55.94 11.96L55.94 11.96Q55.73 11.51 55.73 10.88L55.73 10.88L55.73 10.88Q55.73 10.28 55.98 9.84L55.98 9.84L55.98 9.84Q56.22 9.41 56.64 9.14L56.64 9.14L56.64 9.14Q57.06 8.88 57.62 8.75L57.62 8.75L57.62 8.75Q58.18 8.62 58.80 8.62L58.80 8.62L58.80 8.62Q59.00 8.62 59.21 8.64L59.21 8.64L59.21 8.64Q59.42 8.67 59.61 8.70L59.61 8.70L59.61 8.70Q59.79 8.74 59.93 8.76L59.93 8.76L59.93 8.76Q60.07 8.79 60.13 8.81L60.13 8.81L60.13 8.44L60.13 8.44Q60.13 8.12 60.06 7.80L60.06 7.80L60.06 7.80Q59.99 7.49 59.81 7.25L59.81 7.25L59.81 7.25Q59.63 7 59.31 6.85L59.31 6.85L59.31 6.85Q59.00 6.71 58.49 6.71L58.49 6.71L58.49 6.71Q57.85 6.71 57.37 6.80L57.37 6.80L57.37 6.80Q56.88 6.89 56.64 6.99L56.64 6.99L56.49 5.91L56.49 5.91Q56.74 5.80 57.33 5.69L57.33 5.69L57.33 5.69Q57.92 5.59 58.60 5.59ZM63.56 13.05L63.56 5.98L63.56 5.98Q64.01 5.87 64.75 5.74L64.75 5.74L64.75 5.74Q65.49 5.61 66.46 5.61L66.46 5.61L66.46 5.61Q67.33 5.61 67.90 5.86L67.90 5.86L67.90 5.86Q68.47 6.10 68.82 6.54L68.82 6.54L68.82 6.54Q69.16 6.99 69.30 7.60L69.30 7.60L69.30 7.60Q69.44 8.22 69.44 8.96L69.44 8.96L69.44 13.05L68.14 13.05L68.14 9.24L68.14 9.24Q68.14 8.57 68.05 8.09L68.05 8.09L68.05 8.09Q67.96 7.62 67.75 7.32L67.75 7.32L67.75 7.32Q67.54 7.03 67.19 6.89L67.19 6.89L67.19 6.89Q66.84 6.76 66.32 6.76L66.32 6.76L66.32 6.76Q66.11 6.76 65.88 6.78L65.88 6.78L65.88 6.78Q65.66 6.79 65.46 6.81L65.46 6.81L65.46 6.81Q65.25 6.83 65.09 6.86L65.09 6.86L65.09 6.86Q64.93 6.89 64.86 6.90L64.86 6.90L64.86 13.05L63.56 13.05ZM72.90 5.77L72.90 13.05L71.60 13.05L71.60 5.77L72.90 5.77ZM72.24 4.45L72.24 4.45L72.24 4.45Q71.89 4.45 71.64 4.22L71.64 4.22L71.64 4.22Q71.40 3.99 71.40 3.60L71.40 3.60L71.40 3.60Q71.40 3.21 71.64 2.97L71.64 2.97L71.64 2.97Q71.89 2.74 72.24 2.74L72.24 2.74L72.24 2.74Q72.59 2.74 72.83 2.97L72.83 2.97L72.83 2.97Q73.08 3.21 73.08 3.60L73.08 3.60L73.08 3.60Q73.08 3.99 72.83 4.22L72.83 4.22L72.83 4.22Q72.59 4.45 72.24 4.45ZM75.14 13.05L75.14 5.98L75.14 5.98Q75.59 5.87 76.33 5.74L76.33 5.74L76.33 5.74Q77.07 5.61 78.04 5.61L78.04 5.61L78.04 5.61Q78.90 5.61 79.48 5.86L79.48 5.86L79.48 5.86Q80.05 6.10 80.39 6.54L80.39 6.54L80.39 6.54Q80.74 6.99 80.88 7.60L80.88 7.60L80.88 7.60Q81.02 8.22 81.02 8.96L81.02 8.96L81.02 13.05L79.72 13.05L79.72 9.24L79.72 9.24Q79.72 8.57 79.63 8.09L79.63 8.09L79.63 8.09Q79.53 7.62 79.32 7.32L79.32 7.32L79.32 7.32Q79.11 7.03 78.76 6.89L78.76 6.89L78.76 6.89Q78.41 6.76 77.90 6.76L77.90 6.76L77.90 6.76Q77.69 6.76 77.46 6.78L77.46 6.78L77.46 6.78Q77.24 6.79 77.03 6.81L77.03 6.81L77.03 6.81Q76.83 6.83 76.67 6.86L76.67 6.86L76.67 6.86Q76.51 6.89 76.44 6.90L76.44 6.90L76.44 13.05L75.14 13.05ZM82.77 9.42L82.77 9.42L82.77 9.42Q82.77 8.46 83.05 7.74L83.05 7.74L83.05 7.74Q83.33 7.01 83.79 6.54L83.79 6.54L83.79 6.54Q84.25 6.06 84.85 5.82L84.85 5.82L84.85 5.82Q85.46 5.59 86.09 5.59L86.09 5.59L86.09 5.59Q87.56 5.59 88.34 6.50L88.34 6.50L88.34 6.50Q89.12 7.42 89.12 9.30L89.12 9.30L89.12 9.30Q89.12 9.38 89.12 9.51L89.12 9.51L89.12 9.51Q89.12 9.65 89.11 9.76L89.11 9.76L84.13 9.76L84.13 9.76Q84.21 10.89 84.78 11.48L84.78 11.48L84.78 11.48Q85.36 12.07 86.58 12.07L86.58 12.07L86.58 12.07Q87.26 12.07 87.73 11.95L87.73 11.95L87.73 11.95Q88.20 11.83 88.44 11.72L88.44 11.72L88.62 12.81L88.62 12.81Q88.38 12.94 87.79 13.08L87.79 13.08L87.79 13.08Q87.19 13.22 86.44 13.22L86.44 13.22L86.44 13.22Q85.48 13.22 84.79 12.93L84.79 12.93L84.79 12.93Q84.10 12.64 83.65 12.14L83.65 12.14L83.65 12.14Q83.20 11.63 82.98 10.94L82.98 10.94L82.98 10.94Q82.77 10.25 82.77 9.42ZM84.15 8.71L87.77 8.71L87.77 8.71Q87.78 7.83 87.33 7.26L87.33 7.26L87.33 7.26Q86.87 6.69 86.07 6.69L86.07 6.69L86.07 6.69Q85.62 6.69 85.28 6.87L85.28 6.87L85.28 6.87Q84.94 7.04 84.70 7.32L84.70 7.32L84.70 7.32Q84.46 7.60 84.33 7.97L84.33 7.97L84.33 7.97Q84.20 8.33 84.15 8.71L84.15 8.71ZM92.69 12.11L92.69 12.11L92.69 12.11Q93.49 12.11 93.88 11.90L93.88 11.90L93.88 11.90Q94.26 11.69 94.26 11.23L94.26 11.23L94.26 11.23Q94.26 10.75 93.88 10.47L93.88 10.47L93.88 10.47Q93.51 10.19 92.64 9.84L92.64 9.84L92.64 9.84Q92.22 9.67 91.83 9.50L91.83 9.50L91.83 9.50Q91.45 9.32 91.17 9.09L91.17 9.09L91.17 9.09Q90.89 8.85 90.72 8.51L90.72 8.51L90.72 8.51Q90.55 8.18 90.55 7.69L90.55 7.69L90.55 7.69Q90.55 6.72 91.27 6.15L91.27 6.15L91.27 6.15Q91.98 5.59 93.21 5.59L93.21 5.59L93.21 5.59Q93.52 5.59 93.83 5.62L93.83 5.62L93.83 5.62Q94.14 5.66 94.40 5.71L94.40 5.71L94.40 5.71Q94.67 5.75 94.87 5.81L94.87 5.81L94.87 5.81Q95.07 5.87 95.19 5.91L95.19 5.91L94.95 7.03L94.95 7.03Q94.74 6.92 94.29 6.80L94.29 6.80L94.29 6.80Q93.84 6.68 93.21 6.68L93.21 6.68L93.21 6.68Q92.67 6.68 92.26 6.89L92.26 6.89L92.26 6.89Q91.85 7.11 91.85 7.57L91.85 7.57L91.85 7.57Q91.85 7.81 91.94 7.99L91.94 7.99L91.94 7.99Q92.04 8.18 92.22 8.32L92.22 8.32L92.22 8.32Q92.41 8.47 92.69 8.60L92.69 8.60L92.69 8.60Q92.97 8.72 93.37 8.86L93.37 8.86L93.37 8.86Q93.88 9.06 94.29 9.25L94.29 9.25L94.29 9.25Q94.70 9.44 94.98 9.69L94.98 9.69L94.98 9.69Q95.27 9.94 95.42 10.30L95.42 10.30L95.42 10.30Q95.58 10.65 95.58 11.17L95.58 11.17L95.58 11.17Q95.58 12.18 94.83 12.70L94.83 12.70L94.83 12.70Q94.08 13.22 92.69 13.22L92.69 13.22L92.69 13.22Q91.73 13.22 91.18 13.05L91.18 13.05L91.18 13.05Q90.64 12.89 90.44 12.81L90.44 12.81L90.68 11.69L90.68 11.69Q90.90 11.77 91.39 11.94L91.39 11.94L91.39 11.94Q91.88 12.11 92.69 12.11Z"></path></g><defs data-v-423bf9ae=""><linearGradient data-v-423bf9ae="" gradientTransform="rotate(25)" id="2794e9ac-643f-4f45-97a0-aec4479e583c" x1="0%" y1="0%" x2="100%" y2="0%"><stop data-v-423bf9ae="" offset="0%" style="stop-color: rgb(233, 0, 127); stop-opacity: 1;"></stop><stop data-v-423bf9ae="" offset="100%" style="stop-color: rgb(254, 161, 52); stop-opacity: 1;"></stop></linearGradient></defs><g data-v-423bf9ae="" id="b62aa94a-6cc5-4e4c-ad43-4851dba65040" transform="matrix(1.1682322679242974,0,0,1.1682322679242974,-11.91116209294723,-9.476424998054163)" stroke="none" fill="url(#2794e9ac-643f-4f45-97a0-aec4479e583c)"><path d="M70.8 53.87L68.17 53a77 77 0 0 0-12.69-3.25 10.25 10.25 0 0 1-4.12-1.65 6.88 6.88 0 0 1-3.28-6.17A7.17 7.17 0 0 1 53.35 35a19.06 19.06 0 0 0 8.57-5.1 11.73 11.73 0 0 1 3-2.28 4.71 4.71 0 0 1 5.32.74 9.7 9.7 0 0 1 2.07 3.14c.65 1.61 1.3 3.21 2 4.81A33.5 33.5 0 0 0 78 42.65a8.26 8.26 0 0 1 1.49 5.6 6 6 0 0 1-5.3 5.57 12.31 12.31 0 0 1-1.6.12c-.5.06-1.03-.04-1.79-.07z"></path><ellipse cx="62.94" cy="17.18" rx="8.02" ry="5.81" transform="rotate(-86 62.94 17.182)"></ellipse><ellipse cx="50.46" cy="26.45" rx="5.34" ry="7.37" transform="rotate(-1.77 50.423 26.356)"></ellipse><ellipse cx="78.16" cy="20.84" rx="8.02" ry="5.81" transform="rotate(-63.97 78.158 20.832)"></ellipse><ellipse cx="84.35" cy="35.1" rx="7.37" ry="5.34" transform="rotate(-58 84.719 34.892)"></ellipse><path d="M46.84 77.59l-2.08 1a65.43 65.43 0 0 0-9.52 5.6 8.69 8.69 0 0 1-3.44 1.45A5.78 5.78 0 0 1 26.18 84a6 6 0 0 1-1-7.26 16 16 0 0 0 2.1-8.14 9.86 9.86 0 0 1 .44-3.14 4 4 0 0 1 3.62-2.72 8.37 8.37 0 0 1 3.11.65c1.34.57 2.68 1.15 4 1.7a28.31 28.31 0 0 0 6 1.55 7 7 0 0 1 4.22 2.46 5.06 5.06 0 0 1 .13 6.48 9.47 9.47 0 0 1-.88 1c-.26.3-.61.58-1.08 1.01z" data-name="nISRQw.tif"></path><ellipse cx="20.36" cy="60.32" rx="4.89" ry="6.75" transform="rotate(-40.79 20.371 60.322)"></ellipse><ellipse cx="18.4" cy="73.27" rx="4.5" ry="6.21" transform="rotate(-46.57 18.398 73.27)"></ellipse><ellipse cx="31.63" cy="53.47" rx="4.89" ry="6.75" transform="rotate(-18.77 31.628 53.46)"></ellipse><ellipse cx="43.8" cy="58.32" rx="4.5" ry="6.21" transform="rotate(-13.09 43.777 58.316)"></ellipse></g><!----></svg>